<?xml version="1.0" encoding="UTF-8" standalone="no"?>
<!-- Created with Inkscape (http://www.inkscape.org/) -->
<svg
   xmlns:dc="http://purl.org/dc/elements/1.1/"
   xmlns:cc="http://creativecommons.org/ns#"
   xmlns:rdf="http://www.w3.org/1999/02/22-rdf-syntax-ns#"
   xmlns:svg="http://www.w3.org/2000/svg"
   xmlns="http://www.w3.org/2000/svg"
   xmlns:xlink="http://www.w3.org/1999/xlink"
   xmlns:sodipodi="http://sodipodi.sourceforge.net/DTD/sodipodi-0.dtd"
   xmlns:inkscape="http://www.inkscape.org/namespaces/inkscape"
   width="48px"
   height="48px"
   id="svg1256"
   sodipodi:version="0.32"
   inkscape:version="0.46"
   sodipodi:docbase="/home/jimmac/src/cvs/tango-icon-theme/scalable/actions"
   sodipodi:docname="address-book-new.svg"
   inkscape:output_extension="org.inkscape.output.svg.inkscape">
  <defs
     id="defs3">
    <inkscape:perspective
       sodipodi:type="inkscape:persp3d"
       inkscape:vp_x="0 : 24 : 1"
       inkscape:vp_y="0 : 1000 : 0"
       inkscape:vp_z="48 : 24 : 1"
       inkscape:persp3d-origin="24 : 16 : 1"
       id="perspective58" />
    <linearGradient
       inkscape:collect="always"
       id="linearGradient5060">
      <stop
         style="stop-color:black;stop-opacity:1;"
         offset="0"
         id="stop5062" />
      <stop
         style="stop-color:black;stop-opacity:0;"
         offset="1"
         id="stop5064" />
    </linearGradient>
    <linearGradient
       id="linearGradient5048">
      <stop
         style="stop-color:black;stop-opacity:0;"
         offset="0"
         id="stop5050" />
      <stop
         id="stop5056"
         offset="0.5"
         style="stop-color:black;stop-opacity:1;" />
      <stop
         style="stop-color:black;stop-opacity:0;"
         offset="1"
         id="stop5052" />
    </linearGradient>
    <linearGradient
       id="linearGradient12512">
      <stop
         style="stop-color:#ffffff;stop-opacity:1.0000000;"
         offset="0.0000000"
         id="stop12513" />
      <stop
         style="stop-color:#fff520;stop-opacity:0.89108908;"
         offset="0.50000000"
         id="stop12517" />
      <stop
         style="stop-color:#fff300;stop-opacity:0.0000000;"
         offset="1.0000000"
         id="stop12514" />
    </linearGradient>
    <radialGradient
       inkscape:collect="always"
       xlink:href="#linearGradient12512"
       id="radialGradient278"
       gradientUnits="userSpaceOnUse"
       cx="55.000000"
       cy="125.00000"
       fx="55.000000"
       fy="125.00000"
       r="14.375000" />
    <linearGradient
       inkscape:collect="always"
       id="linearGradient2116">
      <stop
         style="stop-color:#ffffff;stop-opacity:1;"
         offset="0"
         id="stop2118" />
      <stop
         style="stop-color:#ffffff;stop-opacity:0;"
         offset="1"
         id="stop2120" />
    </linearGradient>
    <linearGradient
       id="linearGradient2094">
      <stop
         style="stop-color:#d6e3f0;stop-opacity:1.0000000;"
         offset="0.0000000"
         id="stop2096" />
      <stop
         style="stop-color:#95b1cf;stop-opacity:1.0000000;"
         offset="1.0000000"
         id="stop2098" />
    </linearGradient>
    <linearGradient
       id="linearGradient2803">
      <stop
         id="stop2805"
         offset="0"
         style="stop-color:#ffffff;stop-opacity:1;" />
      <stop
         id="stop2807"
         offset="1.0000000"
         style="stop-color:#cbcbcb;stop-opacity:1.0000000;" />
    </linearGradient>
    <linearGradient
       id="linearGradient2795">
      <stop
         id="stop2797"
         offset="0.0000000"
         style="stop-color:#000000;stop-opacity:0.068627454;" />
      <stop
         id="stop2799"
         offset="1.0000000"
         style="stop-color:#ffffff;stop-opacity:1.0000000;" />
    </linearGradient>
    <linearGradient
       gradientUnits="userSpaceOnUse"
       y2="4.9530048"
       x2="41.219128"
       y1="4.9530050"
       x1="35.433035"
       gradientTransform="matrix(0.254000,0.000000,1.822151e-16,3.759813,0.788629,0.148567)"
       id="linearGradient2801"
       xlink:href="#linearGradient2795"
       inkscape:collect="always" />
    <linearGradient
       gradientUnits="userSpaceOnUse"
       y2="84.287079"
       x2="10.219901"
       y1="93.338043"
       x1="10.496115"
       gradientTransform="matrix(2.262742,0.000000,0.000000,0.441942,1.000000,-0.875000)"
       id="linearGradient2813"
       xlink:href="#linearGradient2803"
       inkscape:collect="always" />
    <linearGradient
       inkscape:collect="always"
       xlink:href="#linearGradient2094"
       id="linearGradient2100"
       gradientTransform="matrix(0.957750,0.000000,0.000000,1.027989,1.000000,-0.571911)"
       x1="6.5871811"
       y1="22.132999"
       x2="14.511404"
       y2="22.132999"
       gradientUnits="userSpaceOnUse" />
    <linearGradient
       inkscape:collect="always"
       xlink:href="#linearGradient2116"
       id="linearGradient2112"
       gradientTransform="matrix(1.025428,0.000000,0.000000,0.957303,0.000000,-0.806758)"
       x1="73.361984"
       y1="26.652197"
       x2="-2.7582901"
       y2="21.270376"
       gradientUnits="userSpaceOnUse" />
    <radialGradient
       inkscape:collect="always"
       xlink:href="#linearGradient5060"
       id="radialGradient5013"
       gradientUnits="userSpaceOnUse"
       cx="605.71429"
       cy="486.64789"
       fx="605.71429"
       fy="486.64789"
       r="117.14286"
       gradientTransform="matrix(2.774389,0,0,1.969706,-1891.633,-872.8854)" />
    <linearGradient
       inkscape:collect="always"
       xlink:href="#linearGradient5048"
       id="linearGradient5016"
       gradientUnits="userSpaceOnUse"
       x1="302.85715"
       y1="366.64789"
       x2="302.85715"
       y2="609.50507"
       gradientTransform="matrix(2.774389,0,0,1.969706,-1892.179,-872.8854)" />
    <radialGradient
       inkscape:collect="always"
       xlink:href="#linearGradient5060"
       id="radialGradient5020"
       gradientUnits="userSpaceOnUse"
       gradientTransform="matrix(-2.774389,0,0,1.969706,112.7623,-872.8854)"
       cx="605.71429"
       cy="486.64789"
       fx="605.71429"
       fy="486.64789"
       r="117.14286" />
    <linearGradient
       inkscape:collect="always"
       xlink:href="#linearGradient5048"
       id="linearGradient5027"
       gradientUnits="userSpaceOnUse"
       gradientTransform="matrix(2.774389,0,0,1.969706,-1892.179,-872.8854)"
       x1="302.85715"
       y1="366.64789"
       x2="302.85715"
       y2="609.50507" />
    <radialGradient
       inkscape:collect="always"
       xlink:href="#linearGradient5060"
       id="radialGradient5029"
       gradientUnits="userSpaceOnUse"
       gradientTransform="matrix(2.774389,0,0,1.969706,-1891.633,-872.8854)"
       cx="605.71429"
       cy="486.64789"
       fx="605.71429"
       fy="486.64789"
       r="117.14286" />
    <radialGradient
       inkscape:collect="always"
       xlink:href="#linearGradient5060"
       id="radialGradient5031"
       gradientUnits="userSpaceOnUse"
       gradientTransform="matrix(-2.774389,0,0,1.969706,112.7623,-872.8854)"
       cx="605.71429"
       cy="486.64789"
       fx="605.71429"
       fy="486.64789"
       r="117.14286" />
  </defs>
  <sodipodi:namedview
     id="base"
     pagecolor="#ffffff"
     bordercolor="#666666"
     borderopacity="0.27843137"
     inkscape:pageopacity="0.0"
     inkscape:pageshadow="2"
     inkscape:zoom="1"
     inkscape:cx="-111.52422"
     inkscape:cy="10.167608"
     inkscape:current-layer="layer1"
     showgrid="false"
     inkscape:grid-bbox="true"
     inkscape:document-units="px"
     inkscape:window-width="872"
     inkscape:window-height="688"
     inkscape:window-x="562"
     inkscape:window-y="160"
     fill="#ef2929"
     stroke="#cc0000"
     inkscape:showpageshadow="false" />
  <metadata
     id="metadata4">
    <rdf:RDF>
      <cc:Work
         rdf:about="">
        <dc:format>image/svg+xml</dc:format>
        <dc:type
           rdf:resource="http://purl.org/dc/dcmitype/StillImage" />
        <dc:title>Addess Book - New</dc:title>
        <dc:date />
        <dc:creator>
          <cc:Agent>
            <dc:title>Jakub Steiner</dc:title>
          </cc:Agent>
        </dc:creator>
        <dc:source>http://jimmac.musichall.cz</dc:source>
        <dc:subject>
          <rdf:Bag>
            <rdf:li>address</rdf:li>
            <rdf:li>contact</rdf:li>
            <rdf:li>book</rdf:li>
          </rdf:Bag>
        </dc:subject>
        <cc:license
           rdf:resource="http://creativecommons.org/licenses/publicdomain/" />
      </cc:Work>
      <cc:License
         rdf:about="http://creativecommons.org/licenses/publicdomain/">
        <cc:permits
           rdf:resource="http://creativecommons.org/ns#Reproduction" />
        <cc:permits
           rdf:resource="http://creativecommons.org/ns#Distribution" />
        <cc:permits
           rdf:resource="http://creativecommons.org/ns#DerivativeWorks" />
      </cc:License>
    </rdf:RDF>
  </metadata>
  <g
     id="layer1"
     inkscape:label="Layer 1"
     inkscape:groupmode="layer">
    <path
       style="opacity:1;color:#000000;fill:#edd400;fill-opacity:1;fill-rule:evenodd;stroke:#c4a000;stroke-width:1;stroke-linecap:round;stroke-linejoin:round;marker:none;marker-start:none;marker-mid:none;marker-end:none;stroke-miterlimit:4;stroke-dasharray:none;stroke-dashoffset:0;stroke-opacity:1;visibility:visible;display:inline;overflow:visible"
       d="M 33.096456,4.6520202 L 40.521077,4.6520202 C 41.228184,4.6520202 41.758513,4.8287969 41.93529,5.71268 L 42.819174,12.606972 C 42.907562,13.667632 42.443523,14.021185 41.493349,14.021185 L 32.919679,14.021185 L 33.096456,4.6520202 z "
       id="path21630"
       sodipodi:nodetypes="ccccccc" />
    <path
       sodipodi:nodetypes="ccccccc"
       id="path21632"
       d="M 34.10295,5.638875 L 40.463507,5.638875 C 40.771656,5.638875 40.940266,5.669037 40.986054,5.960473 L 41.777489,12.344449 C 41.847258,12.775421 41.959897,13.019804 41.637211,13.034341 L 33.963412,13.034341 L 34.10295,5.638875 z "
       style="opacity:0.48538011;color:#000000;fill:none;fill-opacity:1;fill-rule:evenodd;stroke:#ffffff;stroke-width:1.0000006;stroke-linecap:round;stroke-linejoin:round;marker:none;marker-start:none;marker-mid:none;marker-end:none;stroke-miterlimit:4;stroke-dasharray:none;stroke-dashoffset:0;stroke-opacity:1;visibility:visible;display:inline;overflow:visible" />
    <path
       sodipodi:nodetypes="ccccccc"
       id="path21634"
       d="M 35.596456,12.40202 L 43.021077,12.40202 C 43.728184,12.40202 44.258513,12.578797 44.43529,13.46268 L 45.319174,20.356972 C 45.407562,21.417632 44.943523,21.771185 43.993349,21.771185 L 35.419679,21.771185 L 35.596456,12.40202 z "
       style="opacity:1;color:#000000;fill:#9db029;fill-opacity:1;fill-rule:evenodd;stroke:#727e0a;stroke-width:1;stroke-linecap:round;stroke-linejoin:round;marker:none;marker-start:none;marker-mid:none;marker-end:none;stroke-miterlimit:4;stroke-dasharray:none;stroke-dashoffset:0;stroke-opacity:1;visibility:visible;display:inline;overflow:visible" />
    <path
       style="opacity:0.48538011;color:#000000;fill:none;fill-opacity:1;fill-rule:evenodd;stroke:#ffffff;stroke-width:1.0000006;stroke-linecap:round;stroke-linejoin:round;marker:none;marker-start:none;marker-mid:none;marker-end:none;stroke-miterlimit:4;stroke-dasharray:none;stroke-dashoffset:0;stroke-opacity:1;visibility:visible;display:inline;overflow:visible"
       d="M 36.60295,13.388875 L 42.963507,13.388875 C 43.271656,13.388875 43.440266,13.419037 43.486054,13.710473 L 44.277489,20.094449 C 44.347258,20.525421 44.459897,20.769804 44.137211,20.784341 L 36.463412,20.784341 L 36.60295,13.388875 z "
       id="path21636"
       sodipodi:nodetypes="ccccccc" />
    <path
       style="opacity:1;color:#000000;fill:#ef2929;fill-opacity:1;fill-rule:evenodd;stroke:#cc0000;stroke-width:0.99999988;stroke-linecap:round;stroke-linejoin:round;marker:none;marker-start:none;marker-mid:none;marker-end:none;stroke-miterlimit:4;stroke-dasharray:none;stroke-dashoffset:0;stroke-opacity:1;visibility:visible;display:inline;overflow:visible"
       d="M 36.06451,20.776498 L 44.50992,20.776498 C 45.314245,20.776498 45.917487,20.995896 46.118569,22.092882 L 47.123975,30.649381 C 47.224515,31.965765 46.696677,32.40456 45.615866,32.40456 L 35.863428,32.40456 L 36.06451,20.776498 z "
       id="path21638"
       sodipodi:nodetypes="ccccccc" />
    <path
       sodipodi:nodetypes="ccccccc"
       id="path21640"
       d="M 37.209384,21.763574 L 44.444435,21.763574 C 44.79495,21.763574 44.986742,21.801928 45.038825,22.172513 L 45.939072,30.290267 C 46.018433,30.838284 46.146559,31.149038 45.779508,31.167522 L 37.050661,31.167522 L 37.209384,21.763574 z "
       style="opacity:0.48538011;color:#000000;fill:none;fill-opacity:1;fill-rule:evenodd;stroke:#ffffff;stroke-width:1.00000072;stroke-linecap:round;stroke-linejoin:round;marker:none;marker-start:none;marker-mid:none;marker-end:none;stroke-miterlimit:4;stroke-dasharray:none;stroke-dashoffset:0;stroke-opacity:1;visibility:visible;display:inline;overflow:visible" />
    <g
       id="g5022"
       transform="matrix(2.165152e-2,0,0,4.307902e-2,43.08625,34.04509)">
      <rect
         y="-150.69685"
         x="-1559.2523"
         height="478.35718"
         width="1339.6335"
         id="rect4173"
         style="opacity:0.40206185;color:black;fill:url(#linearGradient5027);fill-opacity:1;fill-rule:nonzero;stroke:none;stroke-width:1;stroke-linecap:round;stroke-linejoin:miter;marker:none;marker-start:none;marker-mid:none;marker-end:none;stroke-miterlimit:4;stroke-dasharray:none;stroke-dashoffset:0;stroke-opacity:1;visibility:visible;display:inline;overflow:visible" />
      <path
         sodipodi:nodetypes="cccc"
         id="path5058"
         d="M -219.61876,-150.68038 C -219.61876,-150.68038 -219.61876,327.65041 -219.61876,327.65041 C -76.744594,328.55086 125.78146,220.48075 125.78138,88.454235 C 125.78138,-43.572302 -33.655436,-150.68036 -219.61876,-150.68038 z "
         style="opacity:0.40206185;color:black;fill:url(#radialGradient5029);fill-opacity:1;fill-rule:nonzero;stroke:none;stroke-width:1;stroke-linecap:round;stroke-linejoin:miter;marker:none;marker-start:none;marker-mid:none;marker-end:none;stroke-miterlimit:4;stroke-dasharray:none;stroke-dashoffset:0;stroke-opacity:1;visibility:visible;display:inline;overflow:visible" />
      <path
         style="opacity:0.40206185;color:black;fill:url(#radialGradient5031);fill-opacity:1;fill-rule:nonzero;stroke:none;stroke-width:1;stroke-linecap:round;stroke-linejoin:miter;marker:none;marker-start:none;marker-mid:none;marker-end:none;stroke-miterlimit:4;stroke-dasharray:none;stroke-dashoffset:0;stroke-opacity:1;visibility:visible;display:inline;overflow:visible"
         d="M -1559.2523,-150.68038 C -1559.2523,-150.68038 -1559.2523,327.65041 -1559.2523,327.65041 C -1702.1265,328.55086 -1904.6525,220.48075 -1904.6525,88.454235 C -1904.6525,-43.572302 -1745.2157,-150.68036 -1559.2523,-150.68038 z "
         id="path5018"
         sodipodi:nodetypes="cccc" />
    </g>
    <path
       style="color:#000000;fill:#5b6b94;fill-opacity:1;fill-rule:nonzero;stroke:#364878;stroke-width:1.00000012;stroke-linecap:round;stroke-linejoin:round;marker:none;marker-start:none;marker-mid:none;marker-end:none;stroke-miterlimit:4;stroke-dashoffset:0;stroke-opacity:1;visibility:visible;display:inline;overflow:visible"
       d="M 6.3643222,5.5185897 C 6.4551049,3.6036003 7.3719758,2.5542814 9.0788784,2.549044 L 38.405776,2.4590577 C 38.652361,2.4583011 38.974317,2.6592071 38.999012,2.9089888 L 42.257491,35.867228 L 40.942189,35.923862 L 41.571429,42.369516 C 41.632441,42.994499 41.390059,43.52882 40.5,43.533035 L 9.7893046,43.678474 C 7.25676,43.690468 4.6538454,41.59976 4.7759337,39.024403 L 6.3643222,5.5185897 z "
       id="rect1408"
       sodipodi:nodetypes="csssccsssss" />
    <path
       id="path2489"
       d="M 40.125,34.875 L 10.9375,35 C 9.3809819,35.177868 8.125,36.39612 8.125,38 C 8.125,39.60388 9.3809819,40.822132 10.9375,41 L 40.125,41.125 L 40.125,41.0625 C 38.469378,40.984348 37.125,39.674851 37.125,38 C 37.125,36.325149 38.469378,35.015652 40.125,34.9375 L 40.125,34.875 z "
       style="color:#000000;fill:url(#linearGradient2813);fill-opacity:1;fill-rule:nonzero;stroke:none;stroke-width:1;stroke-linecap:round;stroke-linejoin:round;marker:none;marker-start:none;marker-mid:none;marker-end:none;stroke-miterlimit:4;stroke-dashoffset:0;stroke-opacity:1;visibility:visible;display:inline;overflow:visible" />
    <path
       sodipodi:nodetypes="ccccccssc"
       id="path2784"
       d="M 9.6875,2.8125 C 7.9805897,2.8125 7.050103,3.8215062 6.96875,5.6738658 L 5.3125,37.825772 C 5.22054,40.904199 7.1393732,42.654485 9.125,43.15625 C 4.875,41.525579 5.4375,34.164455 10.75,34.195222 L 41.648286,34.195222 L 38.335786,3.2432432 C 38.310025,3.0025304 37.987878,2.8125 37.742036,2.8125 L 9.6875,2.8125 z "
       style="color:#000000;fill:url(#linearGradient2100);fill-opacity:1;fill-rule:nonzero;stroke:none;stroke-width:1;stroke-linecap:round;stroke-linejoin:round;marker:none;marker-start:none;marker-mid:none;marker-end:none;stroke-miterlimit:4;stroke-dashoffset:0;stroke-opacity:1;visibility:visible;display:inline;overflow:visible" />
    <rect
       y="3.968539"
       x="9.7886267"
       height="29.604792"
       width="2"
       id="rect2793"
       style="opacity:0.48044691;color:#000000;fill:url(#linearGradient2801);fill-opacity:1;fill-rule:nonzero;stroke:none;stroke-width:1;stroke-linecap:round;stroke-linejoin:round;marker:none;marker-start:none;marker-mid:none;marker-end:none;stroke-miterlimit:4;stroke-dashoffset:0;stroke-opacity:0.60818715;visibility:visible;display:inline;overflow:visible"
       transform="matrix(1.000000,0.000000,-3.582731e-2,0.999358,0.000000,0.000000)" />
    <path
       style="color:#000000;fill:none;fill-opacity:1;fill-rule:nonzero;stroke:url(#linearGradient2112);stroke-width:1.00000012;stroke-linecap:round;stroke-linejoin:miter;marker:none;marker-start:none;marker-mid:none;marker-end:none;stroke-miterlimit:20;stroke-dasharray:none;stroke-dashoffset:0;stroke-opacity:1;visibility:visible;display:inline;overflow:visible"
       d="M 9.8751008,3.3336831 C 8.1912014,3.3336831 7.5384236,4.0658459 7.4581673,5.887831 L 6.1592633,35.777198 C 7.0925916,34.170451 8.5988591,33.594437 11.011665,33.594437 L 40.963081,33.594437 L 38.137179,3.7573631 C 38.114727,3.5203092 37.793961,3.3336831 37.551434,3.3336831 L 9.8751008,3.3336831 z "
       id="path2104"
       sodipodi:nodetypes="cccscssc" />
    <path
       style="font-size:12px;font-style:normal;font-variant:normal;font-weight:normal;font-stretch:normal;line-height:120.00000477%;writing-mode:lr-tb;text-anchor:start;fill:#ad7fa8;fill-opacity:1;stroke:none;stroke-width:1pt;stroke-linecap:butt;stroke-linejoin:miter;stroke-opacity:1;font-family:Bitstream Vera Sans"
       d="M 21.12553,18.381288 C 21.050283,19.50227 21.269376,20.384155 21.782812,21.026947 C 22.296751,21.661909 23.039741,21.979388 24.011788,21.979387 C 24.97597,21.979388 25.754005,21.65799 26.345892,21.01519 C 26.945589,20.372398 27.282799,19.49443 27.357529,18.381288 C 27.431173,17.283839 27.207372,16.413709 26.686123,15.770905 C 26.165371,15.120279 25.426826,14.794959 24.470482,14.79495 C 23.521952,14.794959 22.743917,15.11636 22.136378,15.759145 C 21.536656,16.401952 21.199707,17.275998 21.12553,18.381288 M 27.29793,21.897075 C 26.787062,22.500679 26.216183,22.947501 25.58529,23.237544 C 24.962734,23.519747 24.247754,23.66085 23.44035,23.660849 C 22.092032,23.66085 21.027197,23.174832 20.245835,22.202797 C 19.472826,21.222925 19.138938,19.949092 19.244172,18.381288 C 19.349395,16.813498 19.858197,15.539665 20.770584,14.559781 C 21.682954,13.579917 22.809375,13.089981 24.149854,13.089969 C 24.957257,13.089981 25.656689,13.238924 26.24815,13.536791 C 26.840107,13.826846 27.347352,14.269749 27.76988,14.865501 L 27.873267,13.325141 L 29.554732,13.325141 L 28.973868,21.979387 C 30.129917,21.806931 31.058551,21.285637 31.759769,20.415508 C 32.469312,19.537544 32.870659,18.404812 32.963808,17.017304 C 33.020082,16.178542 32.947536,15.390722 32.746168,14.653848 C 32.552597,13.916994 32.226018,13.235002 31.766435,12.607873 C 31.020085,11.580979 30.077151,10.79708 28.937625,10.256176 C 27.806428,9.707462 26.551007,9.433097 25.171361,9.433081 C 24.207151,9.433097 23.27347,9.56244 22.370314,9.821111 C 21.467662,10.071974 20.623234,10.448244 19.837027,10.949925 C 18.552629,11.749517 17.517932,12.79994 16.732929,14.101199 C 15.956279,15.394643 15.517185,16.797819 15.415642,18.310738 C 15.331983,19.557142 15.476998,20.725151 15.85069,21.814765 C 16.232213,22.904387 16.822316,23.864664 17.621,24.695594 C 18.389368,25.51085 19.300238,26.130129 20.353615,26.553435 C 21.406448,26.984578 22.54823,27.20015 23.778962,27.200153 C 24.790178,27.20015 25.793384,27.027692 26.788584,26.682781 C 27.791068,26.345701 28.72125,25.859684 29.579139,25.224728 L 30.549801,26.529919 C 29.518874,27.2903 28.409917,27.870384 27.222932,28.270174 C 26.043227,28.677799 24.857618,28.881612 23.666104,28.881616 C 22.215881,28.881612 20.865341,28.622926 19.614483,28.105557 C 18.36308,27.596019 17.268571,26.851316 16.330955,25.871444 C 15.393328,24.89157 14.705054,23.758838 14.266133,22.47324 C 13.827731,21.179813 13.658252,19.792311 13.757696,18.310738 C 13.853452,16.88405 14.211263,15.523986 14.831129,14.230542 C 15.450993,12.937121 16.287663,11.800469 17.34115,10.820582 C 18.419191,9.825045 19.638236,9.0646655 20.998287,8.5394366 C 22.358842,8.0064001 23.779908,7.7398759 25.261489,7.7398585 C 26.923341,7.7398759 28.440813,8.080872 29.813913,8.7628469 C 31.194815,9.444854 32.325282,10.41297 33.205316,11.667193 C 33.741656,12.435425 34.132443,13.270279 34.377679,14.171752 C 34.630708,15.073243 34.724877,16.006082 34.660187,16.970271 C 34.521787,19.031929 33.789414,20.658519 32.463064,21.850041 C 31.136671,23.04157 29.374449,23.66085 27.17639,23.707883 L 27.29793,21.897075"
       id="text21625" />
    <path
       sodipodi:type="arc"
       style="color:#000000;fill:url(#radialGradient278);fill-opacity:1;fill-rule:nonzero;stroke:none;stroke-width:1.25000024;stroke-linecap:butt;stroke-linejoin:round;marker:none;marker-start:none;marker-mid:none;marker-end:none;stroke-miterlimit:4;stroke-dashoffset:0;stroke-opacity:1;visibility:visible;display:block"
       id="path12511"
       sodipodi:cx="55"
       sodipodi:cy="125"
       sodipodi:rx="14.375"
       sodipodi:ry="14.375"
       d="M 69.375 125 A 14.375 14.375 0 1 1  40.625,125 A 14.375 14.375 0 1 1  69.375 125 z"
       transform="matrix(0.611127,0.000000,0.000000,0.611127,-24.94992,-67.63529)"
       inkscape:export-filename="/home/jimmac/ximian_art/icons/nautilus/suse93/stock_new-16.png"
       inkscape:export-xdpi="33.852203"
       inkscape:export-ydpi="33.852203" />
  </g>
</svg>
