<?xml version="1.0" encoding="UTF-8" standalone="no"?>
<!-- Created with Inkscape (http://www.inkscape.org/) -->

<svg
   xmlns:i="http://ns.adobe.com/AdobeIllustrator/10.0/"
   xmlns:dc="http://purl.org/dc/elements/1.1/"
   xmlns:cc="http://creativecommons.org/ns#"
   xmlns:rdf="http://www.w3.org/1999/02/22-rdf-syntax-ns#"
   xmlns:svg="http://www.w3.org/2000/svg"
   xmlns="http://www.w3.org/2000/svg"
   xmlns:xlink="http://www.w3.org/1999/xlink"
   xmlns:sodipodi="http://sodipodi.sourceforge.net/DTD/sodipodi-0.dtd"
   xmlns:inkscape="http://www.inkscape.org/namespaces/inkscape"
   width="1920"
   height="1080"
   id="svg2383"
   sodipodi:version="0.32"
   inkscape:version="0.92.3 (2405546, 2018-03-11)"
   version="1.0"
   sodipodi:docname="Creative_Commons_1.svg"
   inkscape:output_extension="org.inkscape.output.svg.inkscape">
  <defs
     id="defs2385">
    <linearGradient
       inkscape:collect="always"
       id="linearGradient3267">
      <stop
         style="stop-color:#0000ff;stop-opacity:0"
         offset="0"
         id="stop3269" />
      <stop
         id="stop3275"
         offset="0.48768985"
         style="stop-color:#ffffff;stop-opacity:1" />
      <stop
         style="stop-color:#0000ff;stop-opacity:0;"
         offset="1"
         id="stop3271" />
    </linearGradient>
    <inkscape:perspective
       sodipodi:type="inkscape:persp3d"
       inkscape:vp_x="0 : 526.18109 : 1"
       inkscape:vp_y="0 : 1000 : 0"
       inkscape:vp_z="744.09448 : 526.18109 : 1"
       inkscape:persp3d-origin="372.04724 : 350.78739 : 1"
       id="perspective2391" />
    <linearGradient
       inkscape:collect="always"
       xlink:href="#linearGradient3267"
       id="linearGradient3273"
       x1="333.26617"
       y1="671.26709"
       x2="1668.8561"
       y2="671.26709"
       gradientUnits="userSpaceOnUse"
       gradientTransform="matrix(0.4475832,0,0,1.1594093,-317.72844,-354.23847)" />
    <linearGradient
       inkscape:collect="always"
       xlink:href="#linearGradient3267"
       id="linearGradient3463"
       gradientUnits="userSpaceOnUse"
       gradientTransform="matrix(0.4475832,0,0,1.1594093,-317.72845,-255.93349)"
       x1="333.26617"
       y1="671.26709"
       x2="1668.8561"
       y2="671.26709" />
    <inkscape:perspective
       id="perspective2621"
       inkscape:persp3d-origin="151.522 : 24.125 : 1"
       inkscape:vp_z="303.04401 : 36.1875 : 1"
       inkscape:vp_y="0 : 1000 : 0"
       inkscape:vp_x="0 : 36.1875 : 1"
       sodipodi:type="inkscape:persp3d" />
  </defs>
  <sodipodi:namedview
     id="base"
     pagecolor="#ffffff"
     bordercolor="#666666"
     borderopacity="1.0"
     gridtolerance="10000"
     guidetolerance="10"
     objecttolerance="10"
     inkscape:pageopacity="0.0"
     inkscape:pageshadow="2"
     inkscape:zoom="0.48125"
     inkscape:cx="926.75936"
     inkscape:cy="540"
     inkscape:document-units="px"
     inkscape:current-layer="layer1"
     showgrid="false"
     inkscape:window-width="1680"
     inkscape:window-height="975"
     inkscape:window-x="75"
     inkscape:window-y="34"
     inkscape:window-maximized="0" />
  <metadata
     id="metadata2388">
    <rdf:RDF>
      <cc:Work
         rdf:about="">
        <dc:format>image/svg+xml</dc:format>
        <dc:type
           rdf:resource="http://purl.org/dc/dcmitype/StillImage" />
        <dc:title></dc:title>
      </cc:Work>
    </rdf:RDF>
  </metadata>
  <g
     inkscape:label="Layer 1"
     inkscape:groupmode="layer"
     id="layer1">
    <rect
       style="fill:#000000;fill-opacity:1;stroke:none"
       id="rect3160"
       width="1918.3669"
       height="1079.8783"
       x="0.81652832"
       y="0.062805362"
       rx="0"
       ry="0" />
    <rect
       style="opacity:1;fill:#ffffff;fill-opacity:1;stroke:none;stroke-width:0.5;stroke-miterlimit:4;stroke-dasharray:none;stroke-opacity:1"
       id="rect3420"
       width="1921.8118"
       height="239.97296"
       x="-0.062797897"
       y="84.424576" />
    <g
       transform="matrix(1.9983927,0,0,1.8747888,658.04363,127.19226)"
       i:extraneous="self"
       id="g1830">
      <g
         style="display:inline"
         id="g1788"
         i:layer="yes"
         i:dimmedPercent="100"
         i:rgbTrio="#4F008000FFFF" />
      <g
         id="g1828">
        <path
           inkscape:connector-curvature="0"
           style="clip-rule:evenodd;fill-rule:evenodd"
           i:knockout="Off"
           d="m 94.282,49.116 c -2.759,-5.03 -7.465,-7.032 -12.928,-7.032 -7.951,0 -14.28,5.625 -14.28,15.146 0,9.682 5.95,15.145 14.55,15.145 5.517,0 10.223,-3.029 12.819,-7.627 l -6.058,-3.083 c -1.353,3.246 -3.408,4.22 -6.004,4.22 -4.49,0 -6.545,-3.732 -6.545,-8.654 0,-4.923 1.731,-8.655 6.545,-8.655 1.298,0 3.895,0.703 5.409,3.949 z"
           id="path1790" />
        <path
           inkscape:connector-curvature="0"
           style="clip-rule:evenodd;fill-rule:evenodd"
           i:knockout="Off"
           d="m 109.746,48.575 c 4.814,0 6.87,3.732 6.87,8.33 0,5.247 -2.056,8.979 -6.87,8.979 -4.814,0 -6.869,-3.732 -6.869,-8.654 0,-4.922 2.055,-8.655 6.869,-8.655 z m 0,-6.491 c -8.979,0 -15.307,5.463 -15.307,15.146 0,9.682 6.328,15.145 15.307,15.145 8.979,0 15.308,-5.463 15.308,-15.145 0,-9.682 -6.329,-15.146 -15.308,-15.146 z"
           id="path1792" />
        <path
           inkscape:connector-curvature="0"
           style="clip-rule:evenodd;fill-rule:evenodd"
           i:knockout="Off"
           d="m 126.783,71.617 h 8.438 V 53.714 c 0,-2.596 1.082,-4.814 4.489,-4.814 3.246,0 4.111,1.893 4.111,4.706 v 18.012 h 8.438 V 53.93 c 0,-2.921 1.46,-5.03 4.273,-5.03 3.191,0 4.327,1.839 4.327,5.896 v 16.821 h 8.438 v -21.96 c 0,-6.599 -6.058,-7.573 -8.871,-7.573 -3.354,0 -6.491,1.028 -9.249,3.84 -1.894,-2.542 -4.327,-3.84 -7.627,-3.84 -2.596,0 -6.166,0.757 -8.33,3.3 v -2.542 h -8.438 v 28.775 z"
           id="path1794" />
        <path
           inkscape:connector-curvature="0"
           style="clip-rule:evenodd;fill-rule:evenodd"
           i:knockout="Off"
           d="m 171.997,71.617 h 8.438 V 53.714 c 0,-2.596 1.082,-4.814 4.489,-4.814 3.246,0 4.111,1.893 4.111,4.706 v 18.012 h 8.438 V 53.93 c 0,-2.921 1.46,-5.03 4.272,-5.03 3.191,0 4.328,1.839 4.328,5.896 v 16.821 h 8.438 v -21.96 c 0,-6.599 -6.059,-7.573 -8.871,-7.573 -3.354,0 -6.49,1.028 -9.249,3.84 -1.893,-2.542 -4.327,-3.84 -7.627,-3.84 -2.596,0 -6.166,0.757 -8.33,3.3 v -2.542 h -8.438 v 28.775 z"
           id="path1796" />
        <path
           inkscape:connector-curvature="0"
           style="clip-rule:evenodd;fill-rule:evenodd"
           i:knockout="Off"
           d="m 231.544,48.575 c 4.813,0 6.869,3.732 6.869,8.33 0,5.247 -2.056,8.979 -6.869,8.979 -4.814,0 -6.87,-3.732 -6.87,-8.654 0,-4.922 2.056,-8.655 6.87,-8.655 z m 0,-6.491 c -8.979,0 -15.308,5.463 -15.308,15.146 0,9.682 6.328,15.145 15.308,15.145 8.979,0 15.308,-5.463 15.308,-15.145 0,-9.682 -6.329,-15.146 -15.308,-15.146 z"
           id="path1798" />
        <path
           inkscape:connector-curvature="0"
           style="clip-rule:evenodd;fill-rule:evenodd"
           i:knockout="Off"
           d="m 249.122,71.617 h 8.438 V 53.714 c 0,-2.596 1.082,-4.814 4.49,-4.814 3.245,0 4.11,1.893 4.11,4.706 v 18.012 h 8.438 V 50.36 c 0,-4.327 -1.894,-8.276 -8.709,-8.276 -2.596,0 -6.166,0.757 -8.33,3.3 v -2.542 h -8.438 v 28.775 z"
           id="path1800" />
        <path
           inkscape:connector-curvature="0"
           style="clip-rule:evenodd;fill-rule:evenodd"
           i:knockout="Off"
           d="m 302.774,46.25 c -3.895,-2.596 -8.275,-4.165 -12.711,-4.165 -5.843,0 -12.171,2.813 -12.171,10.061 0,10.223 17.038,6.653 17.038,11.143 0,2.597 -3.19,2.921 -4.598,2.921 -3.84,0 -6.49,-1.568 -9.087,-4.057 l -5.247,4.543 c 4.22,3.895 7.789,5.68 14.064,5.68 6.273,0 12.981,-2.705 12.981,-10.277 0,-10.764 -17.038,-6.707 -17.038,-11.629 0,-1.46 1.514,-2.217 3.623,-2.217 2.651,0 6.275,1.082 7.951,3.083 z"
           id="path1802" />
        <path
           inkscape:connector-curvature="0"
           style="clip-rule:evenodd;fill-rule:evenodd"
           i:knockout="Off"
           d="m 94.282,16.011 c -2.759,-5.03 -7.465,-7.032 -12.928,-7.032 -7.951,0 -14.28,5.625 -14.28,15.145 0,9.682 5.95,15.146 14.55,15.146 5.517,0 10.223,-3.029 12.819,-7.627 L 88.385,28.56 c -1.353,3.246 -3.408,4.219 -6.004,4.219 -4.49,0 -6.545,-3.732 -6.545,-8.655 0,-4.922 1.731,-8.654 6.545,-8.654 1.298,0 3.895,0.703 5.409,3.949 z"
           id="path1804" />
        <path
           inkscape:connector-curvature="0"
           style="clip-rule:evenodd;fill-rule:evenodd"
           i:knockout="Off"
           d="m 96.34,38.512 h 8.438 v -16.66 c 0,-3.191 2.001,-4.057 7.032,-4.652 l 0.919,-0.108 -0.054,-7.464 c -2.975,0.217 -6.058,1.298 -7.897,3.029 V 9.736 H 96.34 Z"
           id="path1806" />
        <path
           inkscape:connector-curvature="0"
           style="clip-rule:evenodd;fill-rule:evenodd"
           i:knockout="Off"
           d="m 141.386,25.855 c -0.054,-8.871 -3.624,-16.876 -14.118,-16.876 -8.763,0 -14.118,5.842 -14.118,16.011 0,8.113 5.193,14.28 14.118,14.28 6.437,0 11.034,-2.542 13.955,-7.951 l -6.329,-3.3 c -2.434,3.462 -3.895,5.084 -7.032,5.084 -2.704,0 -6.22,-1.731 -6.274,-7.248 z m -19.905,-5.192 c 0.378,-3.787 3.299,-5.517 5.733,-5.517 2.434,0 5.463,1.298 5.733,5.517 z"
           id="path1808" />
        <path
           inkscape:connector-curvature="0"
           style="clip-rule:evenodd;fill-rule:evenodd"
           i:knockout="Off"
           d="m 160.742,26.504 c 0,4.381 -2.488,6.599 -5.788,6.599 -2.056,0 -3.949,-0.974 -3.949,-3.245 0,-2.326 1.947,-3.137 4.057,-3.732 l 5.68,-1.623 z m 8.113,-9.195 c -0.054,-6.491 -4.976,-8.33 -12.819,-8.33 -3.895,0 -11.575,0.757 -11.846,9.033 h 8.114 c 0.433,-2.867 1.73,-3.84 4.435,-3.84 2.272,0 4.003,0.919 4.003,3.083 v 2.38 l -3.083,0.433 c -9.195,1.298 -14.767,3.732 -14.767,10.656 0,5.517 4.111,8.546 9.628,8.546 3.029,0 7.248,-1.46 8.654,-3.732 h 0.108 c 0.054,0.974 0.217,2.001 0.541,2.975 h 7.789 c -0.703,-1.785 -0.757,-4.002 -0.757,-6.004 z"
           id="path1810" />
        <path
           inkscape:connector-curvature="0"
           style="clip-rule:evenodd;fill-rule:evenodd"
           i:knockout="Off"
           d="m 188.699,10.277 h -5.031 v -8.33 h -8.438 v 8.33 h -4.11 v 5.192 h 4.11 v 15.146 c 0,4.165 1.028,8.654 8.223,8.654 1.839,0 4.327,-0.216 5.409,-0.325 v -6.653 c -0.434,0.054 -1.623,0.162 -2.542,0.162 -1.516,0 -2.651,-0.595 -2.651,-2.867 V 15.47 h 5.031 v -5.193 z"
           id="path1812" />
        <path
           inkscape:connector-curvature="0"
           style="clip-rule:evenodd;fill-rule:evenodd"
           i:knockout="Off"
           d="m 191.876,9.736 v 28.776 h 8.438 V 9.736 Z m 8.439,-3.245 V 0 h -8.438 v 6.491 z"
           id="path1814" />
        <polygon
           style="clip-rule:evenodd;fill-rule:evenodd"
           i:knockout="Off"
           points="201.934,9.736 211.67,38.512 220.162,38.512 230.007,9.736 221.028,9.736 216.051,30.074 215.944,30.074 210.966,9.736 "
           id="polygon1816" />
        <path
           inkscape:connector-curvature="0"
           style="clip-rule:evenodd;fill-rule:evenodd"
           i:knockout="Off"
           d="m 257.256,25.855 c -0.054,-8.871 -3.624,-16.876 -14.117,-16.876 -8.764,0 -14.117,5.842 -14.117,16.011 0,8.113 5.191,14.28 14.117,14.28 6.437,0 11.034,-2.542 13.955,-7.951 l -6.329,-3.3 c -2.434,3.462 -3.895,5.084 -7.031,5.084 -2.704,0 -6.221,-1.731 -6.274,-7.248 z m -19.905,-5.192 c 0.379,-3.787 3.299,-5.517 5.733,-5.517 2.434,0 5.464,1.298 5.734,5.517 z"
           id="path1818" />
        <g
           id="g1826">
          <path
             inkscape:connector-curvature="0"
             style="clip-rule:evenodd;fill-rule:evenodd"
             i:knockout="Off"
             d="M 31.602,8.495 C 22.92,8.495 15.28,11.708 9.376,17.698 3.299,23.863 0,31.85 0,40.185 c 0,8.421 3.212,16.235 9.29,22.313 6.077,6.077 13.978,9.376 22.312,9.376 8.334,0 16.409,-3.299 22.66,-9.463 5.904,-5.817 9.029,-13.544 9.029,-22.226 0,-8.595 -3.125,-16.409 -9.116,-22.4 -6.077,-6.077 -13.891,-9.29 -22.573,-9.29 z m 0.087,5.731 c 7.119,0 13.457,2.691 18.406,7.64 4.861,4.862 7.466,11.287 7.466,18.319 0,7.119 -2.518,13.37 -7.38,18.146 -5.123,5.035 -11.721,7.727 -18.493,7.727 -6.859,0 -13.284,-2.691 -18.232,-7.64 -4.949,-4.95 -7.727,-11.461 -7.727,-18.233 0,-6.859 2.778,-13.37 7.727,-18.406 4.862,-4.948 11.114,-7.553 18.233,-7.553 z"
             id="path1820" />
          <path
             inkscape:connector-curvature="0"
             style="clip-rule:evenodd;fill-rule:evenodd"
             i:knockout="Off"
             d="m 31.28,34.919 c -1.79,-3.264 -4.844,-4.563 -8.389,-4.563 -5.16,0 -9.267,3.65 -9.267,9.829 0,6.283 3.861,9.829 9.443,9.829 3.581,0 6.634,-1.966 8.319,-4.949 l -3.932,-2.001 c -0.878,2.106 -2.211,2.738 -3.896,2.738 -2.914,0 -4.247,-2.422 -4.247,-5.616 0,-3.194 1.123,-5.617 4.247,-5.617 0.842,0 2.527,0.457 3.51,2.562 z"
             id="path1822" />
          <path
             inkscape:connector-curvature="0"
             style="clip-rule:evenodd;fill-rule:evenodd"
             i:knockout="Off"
             d="m 49.562,34.919 c -1.791,-3.264 -4.844,-4.563 -8.389,-4.563 -5.16,0 -9.268,3.65 -9.268,9.829 0,6.283 3.862,9.829 9.443,9.829 3.581,0 6.634,-1.966 8.319,-4.949 l -3.932,-2.001 c -0.877,2.106 -2.211,2.738 -3.896,2.738 -2.913,0 -4.248,-2.422 -4.248,-5.616 0,-3.194 1.124,-5.617 4.248,-5.617 0.842,0 2.527,0.457 3.511,2.562 z"
             id="path1824" />
        </g>
      </g>
    </g>
    <text
       xml:space="preserve"
       style="font-style:normal;font-variant:normal;font-weight:normal;font-stretch:normal;line-height:0%;font-family:sans-serif;-inkscape-font-specification:sans-serif;text-align:center;writing-mode:lr-tb;text-anchor:middle;fill:#ffffff;fill-opacity:1;stroke:none"
       x="929.93945"
       y="482.56055"
       id="text2395-6"
       transform="scale(1.0324386,0.9685806)"><tspan
         sodipodi:role="line"
         x="941.03137"
         y="482.56055"
         style="font-style:normal;font-variant:normal;font-weight:normal;font-stretch:normal;font-size:69.68175507px;line-height:125%;font-family:sans-serif;-inkscape-font-specification:sans-serif;text-align:center;writing-mode:lr-tb;text-anchor:middle;fill:#ffffff;fill-opacity:1;stroke:none"
         id="tspan3428-2">This video features the song </tspan></text>
    <text
       xml:space="preserve"
       style="font-style:normal;font-variant:normal;font-weight:normal;font-stretch:normal;line-height:0%;font-family:sans-serif;-inkscape-font-specification:sans-serif;text-align:center;writing-mode:lr-tb;text-anchor:middle;fill:#ffffff;fill-opacity:1;stroke:none"
       x="930.92615"
       y="920.11475"
       id="text2395-1-2-2"
       transform="scale(1.0324386,0.9685806)"><tspan
         sodipodi:role="line"
         x="930.92615"
         y="920.11475"
         style="font-style:normal;font-variant:normal;font-weight:normal;font-stretch:normal;font-size:69.68175507px;line-height:125%;font-family:sans-serif;-inkscape-font-specification:sans-serif;text-align:center;writing-mode:lr-tb;text-anchor:middle;fill:#ffffff;fill-opacity:1;stroke:none"
         id="tspan3428-8-8-1">available under a</tspan></text>
    <text
       xml:space="preserve"
       style="font-style:normal;font-variant:normal;font-weight:normal;font-stretch:normal;line-height:0%;font-family:sans-serif;-inkscape-font-specification:sans-serif;text-align:center;writing-mode:lr-tb;text-anchor:middle;fill:#ffffff;fill-opacity:1;stroke:none"
       x="929.73529"
       y="1006.683"
       id="text2395-1-2-2-7"
       transform="scale(1.0324386,0.9685806)"><tspan
         sodipodi:role="line"
         x="929.73529"
         y="1006.683"
         style="font-style:normal;font-variant:normal;font-weight:normal;font-stretch:normal;font-size:69.68175507px;line-height:125%;font-family:sans-serif;-inkscape-font-specification:sans-serif;text-align:center;writing-mode:lr-tb;text-anchor:middle;fill:#ffffff;fill-opacity:1;stroke:none"
         id="tspan3428-8-8-1-8">Creative Commons license</tspan></text>
  </g>
</svg>
